<svg xmlns="http://www.w3.org/2000/svg" xmlns:xlink="http://www.w3.org/1999/xlink" width="161.309" height="162.101" viewBox="0 0 161.309 162.101">
  <defs>
    <filter id="Trazado_1" x="0" y="0" width="161.309" height="162.101" filterUnits="userSpaceOnUse">
      <feOffset dy="3" input="SourceAlpha"/>
      <feGaussianBlur stdDeviation="3" result="blur"/>
      <feFlood flood-opacity="0.161"/>
      <feComposite operator="in" in2="blur"/>
      <feComposite in="SourceGraphic"/>
    </filter>
  </defs>
  <g id="Grupo_2175" data-name="Grupo 2175" transform="translate(-133.345 -74.811)">
    <g transform="matrix(1, 0, 0, 1, 133.35, 74.81)" filter="url(#Trazado_1)">
      <path id="Trazado_1-2" data-name="Trazado 1" d="M112.638,144.1H30.671A30.671,30.671,0,0,1,0,113.427V30.668A30.671,30.671,0,0,1,30.671,0h81.967a30.671,30.671,0,0,1,30.671,30.671v82.759A30.671,30.671,0,0,1,112.638,144.1" transform="translate(9 6)" fill="#ffbe00"/>
    </g>
    <path id="Trazado_2" data-name="Trazado 2" d="M252.341,217.811c14.333,11.616,15.519,31.7,3.266,44.328-12.325,12.7-32.831,11.811-44.249-2.98-11.215,14.58-31.509,15.631-43.852,3.388-12.647-12.544-11.743-33.09,2.949-44.675-14.493-11.39-15.589-31.821-3.422-44.337,12.325-12.678,32.9-11.757,44.327,3.051,11.341-14.638,31.374-15.755,43.878-3.365,12.3,12.188,11.909,32.8-2.9,44.591m-48.61-31.887c-4.264-7.652-12.041-11.181-19.714-9.444a17.978,17.978,0,0,0-13.9,15.025c-1.2,7.489,2.764,14.867,9.618,18.692a33.338,33.338,0,0,1,24-24.272m39.163,24.3c7.764-4.349,11.174-12.221,9.47-19.951a17.938,17.938,0,0,0-14.885-14.033c-7.415-1.217-14.739,2.8-18.49,9.671,11.972,3.425,20.806,12.124,23.9,24.314M216.132,197.2a22.923,22.923,0,0,0-7.837-.252c-11.266,1.469-18.429,11.477-17.9,22.1a20.98,20.98,0,0,0,41.691,2.247c1.6-10.89-4.554-21.32-15.949-24.093M203.62,249.813a33.939,33.939,0,0,1-23.957-24.265c-7.526,4.4-11.048,12.146-9.314,19.916a17.94,17.94,0,0,0,14.893,14.031,17.725,17.725,0,0,0,18.377-9.681m41.918,6.145c5.368-4.242,7.855-10.028,7.146-16.413a18.657,18.657,0,0,0-9.815-14.056,32.645,32.645,0,0,1-23.94,24.18c5.248,9.986,17.651,13.367,26.609,6.288" transform="translate(2.655 -64.992)" fill="#eb001b"/>
  </g>
</svg>
